<svg height="321" version="1.1" width="321" xmlns="http://www.w3.org/2000/svg" xmlns:xlink="http://www.w3.org/1999/xlink" style="overflow: hidden; position: relative; left: -0.8px;" viewBox="0 0 321 321" preservices__roweAspectRatio="xMidYMid meet" id="main-svg"><svg height="321" version="1.1" width="321" xmlns="http://www.w3.org/2000/svg" xmlns:xlink="http://www.w3.org/1999/xlink" style="overflow: hidden; position: relative;" viewBox="0 0 16 16" preservices__roweAspectRatio="xMidYMid meet" id="imported-svg-layer-1"><path fill="url(#gradient-6sfdai8mpwkarwrtxrlrrt)" stroke="none" d="M1,0H0V16H2V2H16V0H1Z" stroke-width="0" opacity="1" fill-opacity="1" transform="matrix(1,0,0,1,0,0)" style="-webkit-tap-highlight-color: rgba(0, 0, 0, 0); opacity: 1; fill-opacity: 1;"></path><desc style="-webkit-tap-highlight-color: rgba(0, 0, 0, 0);">Created with Logotizer</desc><defs style="-webkit-tap-highlight-color: rgba(0, 0, 0, 0);"><linearGradient id="gradient-6sfdai8mpwkarwrtxrlrrt" x1="1.8369701987210297e-16" y1="0" x2="0" y2="1" style="-webkit-tap-highlight-color: rgba(0, 0, 0, 0);"><stop offset="0%" stop-color="#ffe0b0" stop-opacity="1" style="-webkit-tap-highlight-color: rgba(0, 0, 0, 0);"></stop><stop offset="100%" stop-color="#b15900" stop-opacity="1" style="-webkit-tap-highlight-color: rgba(0, 0, 0, 0);"></stop></linearGradient></defs></svg><svg height="321" version="1.1" width="321" xmlns="http://www.w3.org/2000/svg" xmlns:xlink="http://www.w3.org/1999/xlink" style="overflow: hidden; position: relative;" viewBox="0 0 160 160" preservices__roweAspectRatio="xMidYMid meet" id="imported-svg-layer-2"><desc style="-webkit-tap-highlight-color: rgba(0, 0, 0, 0);">Created with Logotizer</desc><defs style="-webkit-tap-highlight-color: rgba(0, 0, 0, 0);"><linearGradient id="gradient-bfa1tbd2rt26jstzjlr62" x1="1.8369701987210297e-16" y1="0" x2="0" y2="1" style="-webkit-tap-highlight-color: rgba(0, 0, 0, 0);"><stop offset="0%" stop-color="#ebe5e5" stop-opacity="1" style="-webkit-tap-highlight-color: rgba(0, 0, 0, 0);"></stop><stop offset="100%" stop-color="#a5a95d" stop-opacity="1" style="-webkit-tap-highlight-color: rgba(0, 0, 0, 0);"></stop></linearGradient></defs><path fill="url(#gradient-bfa1tbd2rt26jstzjlr62)" stroke="none" d="M80.5,13C43.2,13,13,43.2,13,80.5S43.2,148,80.5,148S148,117.8,148,80.5S117.8,13,80.5,13ZM75.4,25.2H76V76H51.9C53,54.1,62.2,35.2,75.4,25.2ZM55.00000000000001,31.2C47.5,43.5,42.8,59,42.1,76H25.2C26.7,56.9,38,40,55,31.2ZM55.00000000000001,129.79999999999998C38.400000000000006,121.19999999999999,27.200000000000006,104.69999999999999,25.300000000000008,85.99999999999999H42.2C43,102.6,47.7,117.79999999999998,55,129.79999999999998ZM76,135.79999999999998H75.5C62.5,126,53.3,107.6,52,86H76V135.8ZM107.5,32C123.7,41,134.3,57.5,135.8,76H119.9C119.2,59.4,114.7,44.1,107.5,32ZM86,25.3C86.2,25.3,86.5,25.3,86.7,25.400000000000002C99.8,35.400000000000006,109,54.2,110.1,76H86V25.3ZM86.7,135.6C86.5,135.6,86.2,135.6,86,135.7V86H110C108.7,107.5,99.6,125.8,86.7,135.6ZM107.5,129C114.5,117.1,119,102.3,119.8,86H135.7C133.89999999999998,104.1,123.39999999999999,120.1,107.49999999999999,129Z" stroke-width="0" opacity="1" fill-opacity="1" transform="matrix(1,0,0,1,10.5,10.5)" style="-webkit-tap-highlight-color: rgba(0, 0, 0, 0); opacity: 1; fill-opacity: 1; cursor: move;"></path></svg><desc style="-webkit-tap-highlight-color: rgba(0, 0, 0, 0);">Created with Logotizer</desc><defs style="-webkit-tap-highlight-color: rgba(0, 0, 0, 0);"><linearGradient id="gradient-bsvt9wdn1kwx0pzj4fbk8f" x1="1.8369701987210297e-16" y1="0" x2="0" y2="1" style="-webkit-tap-highlight-color: rgba(0, 0, 0, 0);"><stop offset="0%" stop-color="#176c92" stop-opacity="1" style="-webkit-tap-highlight-color: rgba(0, 0, 0, 0);"></stop><stop offset="100%" stop-color="#dfe315" stop-opacity="1" style="-webkit-tap-highlight-color: rgba(0, 0, 0, 0);"></stop></linearGradient></defs><path fill="#37618c" stroke="#000000" d="M-220.43,0L-214.95,-139.22Q-214.31,-151.79,-202.38,-151.79L-170.05,-151.79Q-159.09,-151.79,-156.84,-141.04L-138.36,-65.31Q-136.21,-56.29,-134.39,-44.04L-131.59,-44.04Q-128.59,-60.8,-127.62,-65.31L-109.36,-141.04Q-106.78,-151.79,-95.71,-151.79L-63.38,-151.79Q-51.13,-151.79,-50.81,-139.22L-44.9,0L-76.59,0L-81.64,-125.58L-85.4,-125.58L-108.28,-31.69Q-110.54,-20.95,-121.93,-20.95L-143.95,-20.95Q-155.33,-20.95,-157.59,-31.69L-180.69,-125.58L-184.34,-125.58L-188.74,0L-220.43,0ZM-23.63,-55.21Q-23.63,-71.22,-21.06,-82.23Q-18.48,-93.24,-13.05,-99.63Q-7.63,-106.03,-0.16,-108.76Q7.3,-111.5,17.94,-111.5Q39.1,-111.5,53.17,-101.84Q51.99,-115.26,51.99,-124.5L51.99,-154.04L84.65,-154.04L84.65,0L58.87,0L56.39,-16.11Q39.96,2.69,14.82,2.69Q-5.37,2.69,-14.5,-11.92Q-23.63,-26.53,-23.63,-55.21M9.77,-55.43Q9.77,-42.54,11.71,-35.72Q13.64,-28.9,17.35,-26.53Q21.05,-24.17,27.82,-24.17Q34.59,-24.17,39.42,-26.1Q44.26,-28.04,51.99,-32.98L51.99,-83.14Q51.13,-83.36,48.77,-84Q46.4,-84.65,45.44,-84.92Q44.47,-85.19,42.48,-85.67Q40.5,-86.15,39.21,-86.37Q37.92,-86.58,36.09,-86.85Q34.27,-87.12,32.55,-87.23Q30.83,-87.33,28.89,-87.33Q23.31,-87.33,19.98,-86.21Q16.65,-85.08,14.18,-81.64Q11.71,-78.2,10.74,-71.92Q9.77,-65.63,9.77,-55.43ZM113.33,0L113.33,-151.79Q135.03,-153.83,171.01,-153.83Q187.23,-153.83,197.49,-151.57Q207.75,-149.32,214.41,-143.52Q221.07,-137.71,223.76,-128.37Q226.44,-119.02,226.44,-104.31Q226.44,-89.48,223.87,-79.98Q221.29,-70.47,214.95,-64.78Q208.61,-59.08,199.32,-56.83Q190.03,-54.57,175.42,-54.57Q160.92,-54.57,146.84,-56.29L146.84,0L113.33,0M146.84,-80.35L170.37,-80.35Q183.37,-80.57,188.09,-85.4Q192.82,-90.23,192.82,-104.31Q192.82,-118.38,188.09,-123.21Q183.37,-128.05,170.37,-128.05L146.84,-128.05L146.84,-80.35Z" stroke-width="2" transform="matrix(0.6,0,0,0.6,179,216.7636)" style="-webkit-tap-highlight-color: rgba(0, 0, 0, 0);"></path></svg>