<svg height="321" width="321" xmlns="http://www.w3.org/2000/svg" xmlns:xlink="http://www.w3.org/1999/xlink" style="position:relative;left:-.8px" overflow="hidden"><svg height="321" width="321" xmlns="http://www.w3.org/2000/svg" xmlns:xlink="http://www.w3.org/1999/xlink" style="position:relative" viewBox="0 0 16 16" overflow="hidden"><path fill="url(#gradient-6sfdai8mpwkarwrtxrlrrt)" d="M1 0H0v16h2V2h14V0H1z" style="-webkit-tap-highlight-color:transparent"/><defs style="-webkit-tap-highlight-color:transparent"><linearGradient id="gradient-6sfdai8mpwkarwrtxrlrrt" x1="0" y1="0" x2="0" y2="1" style="-webkit-tap-highlight-color:transparent"><stop offset="0%" stop-color="#ffe0b0" style="-webkit-tap-highlight-color:transparent"/><stop offset="100%" stop-color="#b15900" style="-webkit-tap-highlight-color:transparent"/></linearGradient></defs></svg><svg height="321" width="321" xmlns="http://www.w3.org/2000/svg" style="position:relative" viewBox="0 0 160 160" overflow="hidden"><defs style="-webkit-tap-highlight-color:transparent"><linearGradient id="a" x1="0" y1="0" x2="0" y2="1" style="-webkit-tap-highlight-color:transparent"><stop offset="0%" stop-color="#ebe5e5" style="-webkit-tap-highlight-color:transparent"/><stop offset="100%" stop-color="#a5a95d" style="-webkit-tap-highlight-color:transparent"/></linearGradient></defs><path fill="url(#a)" d="M80.5 13C43.2 13 13 43.2 13 80.5S43.2 148 80.5 148 148 117.8 148 80.5 117.8 13 80.5 13zm-5.1 12.2h.6V76H51.9C53 54.1 62.2 35.2 75.4 25.2zm-20.4 6C47.5 43.5 42.8 59 42.1 76H25.2C26.7 56.9 38 40 55 31.2zm0 98.6c-16.6-8.6-27.8-25.1-29.7-43.8h16.9c.8 16.6 5.5 31.8 12.8 43.8zm21 6h-.5C62.5 126 53.3 107.6 52 86h24v49.8zM107.5 32c16.2 9 26.8 25.5 28.3 44h-15.9c-.7-16.6-5.2-31.9-12.4-44zM86 25.3c.2 0 .5 0 .7.1 13.1 10 22.3 28.8 23.4 50.6H86V25.3zm.7 110.3c-.2 0-.5 0-.7.1V86h24c-1.3 21.5-10.4 39.8-23.3 49.6zm20.8-6.6c7-11.9 11.5-26.7 12.3-43h15.9c-1.8 18.1-12.3 34.1-28.2 43z" transform="translate(10.5 10.5)" style="-webkit-tap-highlight-color:transparent" cursor="move"/></svg><path fill="#37618c" stroke="#000" d="M46.742 216.764l3.288-83.532q.384-7.542 7.542-7.542H76.97q6.576 0 7.926 6.45l11.088 45.438q1.29 5.412 2.382 12.762h1.68q1.8-10.056 2.382-12.762l10.956-45.438q1.548-6.45 8.19-6.45h19.398q7.35 0 7.542 7.542l3.546 83.532h-19.014l-3.03-75.348h-2.256l-13.728 56.334q-1.356 6.444-8.19 6.444H92.63q-6.828 0-8.184-6.444l-13.86-56.334h-2.19l-2.64 75.348H46.742zm118.08-33.126q0-9.606 1.542-16.212 1.548-6.606 4.806-10.44 3.252-3.84 7.734-5.478 4.476-1.644 10.86-1.644 12.696 0 21.138 5.796-.708-8.052-.708-13.596V124.34h19.596v92.424h-15.468l-1.488-9.666q-9.858 11.28-24.942 11.28-12.114 0-17.592-8.766-5.478-8.766-5.478-25.974m20.04-.132q0 7.734 1.164 11.826 1.158 4.092 3.384 5.514 2.22 1.416 6.282 1.416 4.062 0 6.96-1.158 2.904-1.164 7.542-4.128V166.88q-.516-.132-1.932-.516-1.422-.39-1.998-.552-.582-.162-1.776-.45-1.188-.288-1.962-.42-.774-.126-1.872-.288-1.092-.162-2.124-.228-1.032-.06-2.196-.06-3.348 0-5.346.672-1.998.678-3.48 2.742t-2.064 5.832q-.582 3.774-.582 9.894zm62.136 33.258V125.69q13.02-1.224 34.608-1.224 9.732 0 15.888 1.356 6.156 1.35 10.152 4.83 3.996 3.486 5.61 9.09 1.608 5.61 1.608 14.436 0 8.898-1.542 14.598-1.548 5.706-5.352 9.12-3.804 3.42-9.378 4.77-5.574 1.356-14.34 1.356-8.7 0-17.148-1.032v33.774h-20.106m20.106-48.21h14.118q7.8-.132 10.632-3.03 2.838-2.898 2.838-11.346 0-8.442-2.838-11.34-2.832-2.904-10.632-2.904h-14.118v28.62z" stroke-width="1.2" style="-webkit-tap-highlight-color:transparent"/></svg>