<?xml version="1.0" encoding="utf-8"?>
<!-- Generator: Adobe Illustrator 19.0.0, SVG Export Plug-In . SVG Version: 6.00 Build 0)  -->
<svg version="1.1" id="Шар_1" xmlns="http://www.w3.org/2000/svg" xmlns:xlink="http://www.w3.org/1999/xlink" x="0px" y="0px"
	 viewBox="0 0 595.3 841.9" style="enable-background:new 0 0 595.3 841.9;" xml:space="preserve">
<style type="text/css">
	.st0{fill:#08736B;}
	.st1{fill:#2791AB;}
</style>
<polyline id="XMLID_97_" class="st0" points="453.3,241 357.7,263.7 357.7,151.8 299.5,151.8 258.1,247.9 215.8,151.8 158.3,151.8 
	158.3,210.3 280.6,168.2 158.3,228 158.3,354.1 203.5,354.1 203.5,252.9 236.2,321.6 280.1,321.6 312.6,253.4 312.6,317.8 "/>
<path id="XMLID_94_" class="st1" d="M198.4,391.5l107-24.6v57.3l141.4-71.7l-141.4,97.5V505h64.3c14,0,27.1-2.7,39.3-8
	c12.3-5.3,23-12.5,32.2-21.6c9.2-9.1,16.4-19.8,21.8-32c5.3-12.3,8-25.6,8-39.9c0-13.9-2.7-27-8-39.3c-5.3-12.3-12.6-23-21.8-32.1
	c-9.2-9.1-19.9-16.3-32.2-21.6c-12.3-5.3-25.4-7.9-39.3-7.9 M421.4,425.6c-3,6.9-12,18.1-12,18.1s-11,9.2-17.9,12.1
	c-6.9,2.9-14.2,4.4-21.9,4.4h-19.2V347.4h19.2c7.7,0,15,1.5,21.9,4.4c6.9,3,12.8,7,17.9,12.2c5,5.2,9,11.1,12,17.9
	c3,6.8,4.4,14,4.4,21.7C425.9,411.4,424.4,418.8,421.4,425.6z"/>
<path id="XMLID_89_" d="M122.4,529.3h43c9.6,0,17.7,3.4,24.4,10.1c6.7,6.7,10,15.5,10,26.2c0,11.6-3.3,20.7-10,27.4
	s-14.8,10-24.4,10h-17.2v38.2h-25.9V529.3z M148.2,555.2v22.1h17.2c2.3,0,4.4-0.8,6.1-2.5c1.7-1.7,2.6-4.7,2.6-9.1
	c0-3.7-0.9-6.3-2.6-8c-1.7-1.7-3.8-2.5-6.1-2.5H148.2z"/>
<path id="XMLID_86_" d="M263.1,529.5c7.7,0,14.9,1.5,21.7,4.4c6.8,2.9,12.8,6.9,17.8,11.9c5.1,5,9.1,10.9,12,17.7
	c2.9,6.8,4.4,14.1,4.4,21.7c0,7.8-1.5,15.1-4.4,21.9c-2.9,6.8-7,12.7-12,17.7c-5.1,5-11,9-17.8,12c-6.8,2.9-14.1,4.4-21.7,4.4
	c-7.7,0-15-1.5-21.8-4.4c-6.8-2.9-12.7-6.9-17.8-12c-5.1-5-9.1-10.9-12-17.7c-2.9-6.8-4.4-14.1-4.4-21.9c0-7.7,1.5-14.9,4.4-21.7
	c2.9-6.8,7-12.7,12-17.7c5.1-5,11-9,17.8-11.9C248.2,531,255.4,529.5,263.1,529.5z M263.1,616.5c4.3,0,8.3-0.8,12.1-2.4
	c3.8-1.6,7.1-3.8,9.9-6.7c2.8-2.8,5-6.2,6.6-10c1.6-3.8,2.4-7.9,2.4-12.1c0-4.3-0.8-8.3-2.4-12c-1.6-3.7-3.8-7-6.6-9.9
	c-2.8-2.8-6.1-5.1-9.9-6.7c-3.8-1.6-7.8-2.4-12.1-2.4c-4.3,0-8.3,0.8-12.1,2.4c-3.8,1.6-7.1,3.8-9.9,6.7c-2.8,2.9-5,6.1-6.6,9.9
	c-1.6,3.7-2.4,7.7-2.4,12c0,4.3,0.8,8.3,2.4,12.1c1.6,3.8,3.8,7.1,6.6,10c2.8,2.9,6.1,5.1,9.9,6.7
	C254.8,615.7,258.9,616.5,263.1,616.5z"/>
<path id="XMLID_72_" d="M369.4,603.2h-12.6v38.2h-25.9v-112h43c9.6,0,17.7,3.4,24.4,10.1c6.7,6.7,10,15.5,10,26.2
	c0,11.6-3.3,20.7-10,27.4c-1.5,1.5-3.1,2.9-4.7,3.9l14.4,44.3h-26.2L369.4,603.2z M356.7,555.2v22.1h17.2c2.3,0,4.4-0.8,6.1-2.5
	c1.7-1.7,2.6-4.7,2.6-9.1c0-3.7-0.9-6.3-2.6-8c-1.7-1.7-3.8-2.5-6.1-2.5H356.7z"/>
<path id="XMLID_70_" d="M495.9,554.1h-26.7v87.3h-25v-87.3h-26.6v-24.8h78.3V554.1z"/>
</svg>
